<svg id="cookies" enable-background="new 0 0 468.179 468.179" height="512" viewBox="0 0 468.179 468.179" width="512" xmlns="http://www.w3.org/2000/svg"><path fill="#FFFFFF" d="m209.617 39.494c-18.589 0-27.055 14.638-27.055 28.24 0 19.478 13.588 28.2 27.055 28.2 18.588 0 27.054-14.638 27.054-28.24 0-19.484-13.588-28.2-27.054-28.2z"/><path fill="#FFFFFF" d="m277.53 355.034c-11.078 0-16.036 8.451-16.036 16.827-.07 4.276 1.366 8.441 4.057 11.765 2.869 3.339 6.9 5.033 11.979 5.033 11.078 0 16.037-8.451 16.037-16.826.07-4.277-1.367-8.442-4.059-11.766-2.869-3.34-6.899-5.033-11.978-5.033z"/><path fill="#FFFFFF" d="m130.571 203.52c.094-6.418-2.074-12.664-6.124-17.643-4.33-5.041-10.615-7.7-18.177-7.7-12.1 0-24.3 7.85-24.3 25.387-.094 6.418 2.074 12.664 6.124 17.643 4.33 5.041 10.615 7.7 18.177 7.7 12.095.003 24.3-7.85 24.3-25.387z"/><path fill="#FFFFFF" d="m141.704 305.242c-18.589 0-27.056 14.638-27.056 28.24 0 19.478 13.589 28.2 27.056 28.2 18.587 0 27.054-14.638 27.054-28.24-.002-19.482-13.588-28.2-27.054-28.2z"/><path fill="#FFFFFF" d="m242.097 213.301c-11.078 0-16.037 8.451-16.037 16.827-.07 4.277 1.367 8.442 4.059 11.766 2.869 3.34 6.9 5.033 11.978 5.033 11.078 0 16.036-8.451 16.036-16.827.07-4.276-1.366-8.441-4.057-11.765-2.869-3.34-6.9-5.034-11.979-5.034z"/><path fill="#FFFFFF" d="m419.226 197.377c-10.752 4.079-22.161 6.151-33.661 6.113-52.429-.04-94.932-42.511-95.01-94.94 0-1.028.017-2.068.052-3.119-21.22-13.924-27.16-42.401-13.276-63.647-.784-4.26-1.177-8.583-1.175-12.914-.01-8.253 1.429-16.445 4.253-24.2-126.704-25.569-250.147 56.418-275.716 183.123s56.418 250.147 183.122 275.716 250.147-56.417 275.716-183.122c3.074-15.234 4.623-30.736 4.625-46.276 0-5.89-.228-11.949-.678-18.076-17.696-.754-34.652-7.31-48.252-18.658zm-349.257 6.182c0-18.579 12.47-37.387 36.3-37.387s36.3 18.788 36.3 37.348c0 18.579-12.47 37.387-36.3 37.387s-36.3-18.788-36.3-37.348zm71.735 170.12c-25.64 0-39.056-20.221-39.056-40.2-.138-10.014 3.307-19.749 9.715-27.446 7.182-8.37 17.329-12.794 29.341-12.794 25.639 0 39.054 20.221 39.054 40.2-.002 19.997-13.415 40.24-39.054 40.24zm28.858-305.945c0-20 13.415-40.24 39.055-40.24s39.054 20.221 39.054 40.2c0 20-13.415 40.24-39.054 40.24s-39.055-20.224-39.055-40.2zm43.5 162.394c0-14.325 9.631-28.827 28.037-28.827s28.036 14.488 28.036 28.8c.092 7.154-2.376 14.105-6.958 19.6-5.18 6.036-12.468 9.226-21.078 9.226-18.408 0-28.043-14.487-28.043-28.799zm63.47 170.531c-18.406 0-28.036-14.488-28.036-28.8-.092-7.154 2.376-14.105 6.958-19.6 5.18-6.036 12.468-9.226 21.078-9.226 18.406 0 28.037 14.487 28.037 28.8s-9.633 28.826-28.039 28.826zm109.252-88.582c-18.407 0-28.036-14.488-28.036-28.8-.092-7.154 2.376-14.105 6.958-19.6 5.18-6.036 12.468-9.226 21.078-9.226 18.406 0 28.037 14.487 28.037 28.8s-9.633 28.826-28.039 28.826z"/><path fill="#FFFFFF" d="m386.782 266.451c-11.078 0-16.036 8.451-16.036 16.827-.07 4.276 1.366 8.441 4.057 11.765 2.869 3.34 6.9 5.034 11.979 5.034 11.078 0 16.037-8.451 16.037-16.827.07-4.277-1.367-8.442-4.059-11.766-2.869-3.34-6.899-5.033-11.978-5.033z"/></svg>